<svg width="163" height="30" viewBox="0 0 163 30" fill="none" xmlns="http://www.w3.org/2000/svg">
<path d="M32.7857 13.1997H18.2143V9.59979H19.4286C20.0727 9.59979 20.6904 9.34694 21.1458 8.89686C21.6013 8.44678 21.8571 7.83635 21.8571 7.19984V2.39995C21.8571 1.76344 21.6013 1.15301 21.1458 0.702928C20.6904 0.252851 20.0727 0 19.4286 0H14.5714C13.9273 0 13.3096 0.252851 12.8542 0.702928C12.3987 1.15301 12.1429 1.76344 12.1429 2.39995V7.19984C12.1429 7.83635 12.3987 8.44678 12.8542 8.89686C13.3096 9.34694 13.9273 9.59979 14.5714 9.59979H15.7857V13.1997H1.21429C0.892237 13.1997 0.583379 13.3261 0.355656 13.5512C0.127933 13.7762 0 14.0814 0 14.3997C0 14.7179 0.127933 15.0232 0.355656 15.2482C0.583379 15.4732 0.892237 15.5997 1.21429 15.5997H6.07143V20.3995H4.85714C4.21305 20.3995 3.59533 20.6524 3.13988 21.1025C2.68444 21.5526 2.42857 22.163 2.42857 22.7995V27.5994C2.42857 28.2359 2.68444 28.8463 3.13988 29.2964C3.59533 29.7465 4.21305 29.9993 4.85714 29.9993H9.71429C10.3584 29.9993 10.9761 29.7465 11.4315 29.2964C11.887 28.8463 12.1429 28.2359 12.1429 27.5994V22.7995C12.1429 22.163 11.887 21.5526 11.4315 21.1025C10.9761 20.6524 10.3584 20.3995 9.71429 20.3995H8.5V15.5997H25.5V17.9996C25.5 18.3179 25.6279 18.6231 25.8557 18.8481C26.0834 19.0731 26.3922 19.1996 26.7143 19.1996C27.0363 19.1996 27.3452 19.0731 27.5729 18.8481C27.8006 18.6231 27.9286 18.3179 27.9286 17.9996V15.5997H32.7857C33.1078 15.5997 33.4166 15.4732 33.6443 15.2482C33.8721 15.0232 34 14.7179 34 14.3997C34 14.0814 33.8721 13.7762 33.6443 13.5512C33.4166 13.3261 33.1078 13.1997 32.7857 13.1997ZM14.5714 2.39995H19.4286V7.19984H14.5714V2.39995ZM9.71429 27.5994H4.85714V22.7995H9.71429V27.5994ZM31.2147 22.4485L28.431 25.1994L31.2163 27.9504C31.3291 28.0619 31.4186 28.1942 31.4796 28.3399C31.5407 28.4856 31.5721 28.6417 31.5721 28.7994C31.5721 28.957 31.5407 29.1132 31.4796 29.2588C31.4186 29.4045 31.3291 29.5369 31.2163 29.6483C31.1034 29.7598 30.9695 29.8483 30.8221 29.9086C30.6747 29.9689 30.5167 30 30.3571 30C30.1976 30 30.0396 29.9689 29.8922 29.9086C29.7448 29.8483 29.6109 29.7598 29.498 29.6483L26.7143 26.8959L23.9305 29.6483C23.7027 29.8735 23.3937 30 23.0714 30C22.7492 30 22.4402 29.8735 22.2123 29.6483C21.9845 29.4232 21.8565 29.1178 21.8565 28.7994C21.8565 28.4809 21.9845 28.1755 22.2123 27.9504L24.9976 25.1994L22.2123 22.4485C21.9845 22.2233 21.8565 21.9179 21.8565 21.5995C21.8565 21.2811 21.9845 20.9757 22.2123 20.7505C22.4402 20.5254 22.7492 20.3989 23.0714 20.3989C23.3937 20.3989 23.7027 20.5254 23.9305 20.7505L26.7143 23.503L29.498 20.7505C29.7259 20.5254 30.0349 20.3989 30.3571 20.3989C30.6794 20.3989 30.9884 20.5254 31.2163 20.7505C31.4441 20.9757 31.5721 21.2811 31.5721 21.5995C31.5721 21.9179 31.4441 22.2233 31.2163 22.4485H31.2147Z" fill="#E94264"/>
<path d="M60.4795 29.6011L58.8522 23.7175H51.9778L50.3837 29.6011H46L52.5091 6.39889H58.5533L65.0957 29.6011H60.4795ZM55.5644 10.687H55.2988L52.7416 20.1607H58.1216L55.5644 10.687Z" fill="#222222"/>
<path d="M68.138 29.6011V6.39889H76.9386C79.1969 6.39889 80.9238 7.04155 82.1194 8.32687C83.3149 9.61219 83.9127 11.3629 83.9127 13.5789C83.9127 15.795 83.3149 17.5457 82.1194 18.831C80.9238 20.1163 79.1969 20.759 76.9386 20.759H72.4885V29.6011H68.138ZM72.4885 17.2022H76.042C77.2154 17.2022 78.0567 16.9695 78.5659 16.5042C79.0752 16.0166 79.3298 15.2521 79.3298 14.2105V12.9474C79.3298 11.9058 79.0752 11.1524 78.5659 10.687C78.0567 10.1994 77.2154 9.95568 76.042 9.95568H72.4885V17.2022Z" fill="#222222"/>
<path d="M88.051 29.6011V6.39889H96.8516C99.1099 6.39889 100.837 7.04155 102.032 8.32687C103.228 9.61219 103.826 11.3629 103.826 13.5789C103.826 15.795 103.228 17.5457 102.032 18.831C100.837 20.1163 99.1099 20.759 96.8516 20.759H92.4015V29.6011H88.051ZM92.4015 17.2022H95.9549C97.1284 17.2022 97.9697 16.9695 98.4789 16.5042C98.9881 16.0166 99.2427 15.2521 99.2427 14.2105V12.9474C99.2427 11.9058 98.9881 11.1524 98.4789 10.687C97.9697 10.1994 97.1284 9.95568 95.9549 9.95568H92.4015V17.2022Z" fill="#222222"/>
<path d="M108.628 29.6011V6.39889H112.979V26.0111H123.241V29.6011H108.628Z" fill="#222222"/>
<path d="M135.183 30C133.678 30 132.371 29.7341 131.264 29.2022C130.157 28.6482 129.239 27.8615 128.508 26.8421C127.799 25.8227 127.268 24.5706 126.914 23.0859C126.582 21.6011 126.416 19.9058 126.416 18C126.416 16.1163 126.582 14.4321 126.914 12.9474C127.268 11.4404 127.799 10.1773 128.508 9.1579C129.239 8.1385 130.157 7.36288 131.264 6.83102C132.371 6.27701 133.678 6 135.183 6C138.194 6 140.408 7.05263 141.825 9.1579C143.242 11.2632 143.95 14.2105 143.95 18C143.95 21.7895 143.242 24.7368 141.825 26.8421C140.408 28.9474 138.194 30 135.183 30ZM135.183 26.4432C135.958 26.4432 136.611 26.2992 137.142 26.0111C137.674 25.7008 138.094 25.2687 138.404 24.7147C138.737 24.1607 138.969 23.4848 139.102 22.687C139.257 21.867 139.334 20.9584 139.334 19.9612V16.0055C139.334 14.0111 139.024 12.4377 138.404 11.2853C137.807 10.133 136.733 9.55679 135.183 9.55679C133.633 9.55679 132.548 10.133 131.929 11.2853C131.331 12.4377 131.032 14.0111 131.032 16.0055V19.9945C131.032 21.9889 131.331 23.5623 131.929 24.7147C132.548 25.867 133.633 26.4432 135.183 26.4432Z" fill="#222222"/>
<path d="M159.114 26.3767H158.849C158.65 26.8421 158.406 27.2964 158.118 27.7396C157.83 28.1828 157.476 28.5706 157.055 28.903C156.635 29.2355 156.137 29.5014 155.561 29.7008C155.007 29.9003 154.365 30 153.635 30C151.288 30 149.506 28.9695 148.288 26.9086C147.092 24.8255 146.495 21.9114 146.495 18.1662C146.495 14.2216 147.203 11.2078 148.62 9.12465C150.037 7.04155 152.218 6 155.162 6C156.314 6 157.321 6.15512 158.185 6.46537C159.07 6.77562 159.823 7.20776 160.443 7.76177C161.085 8.31579 161.605 8.98061 162.004 9.75623C162.424 10.5097 162.756 11.3296 163 12.2161L159.015 13.3463C158.86 12.8587 158.683 12.3823 158.483 11.9169C158.306 11.4515 158.063 11.0526 157.753 10.7202C157.465 10.3657 157.111 10.0886 156.69 9.8892C156.269 9.66759 155.749 9.55679 155.129 9.55679C153.69 9.55679 152.661 10.133 152.041 11.2853C151.421 12.4377 151.111 14.0111 151.111 16.0055V19.7285C151.111 20.7258 151.177 21.6454 151.31 22.4875C151.465 23.3075 151.709 24.0166 152.041 24.615C152.373 25.2133 152.805 25.6787 153.336 26.0111C153.867 26.3213 154.531 26.4765 155.329 26.4765C156.568 26.4765 157.509 26.1108 158.151 25.3795C158.793 24.626 159.114 23.6731 159.114 22.5208V20.626H154.897V17.4681H163V29.6011H159.114V26.3767Z" fill="#222222"/>
</svg>
