<svg width="34" height="30" viewBox="0 0 34 30" fill="none" xmlns="http://www.w3.org/2000/svg">
<path d="M32.7857 13.1997H18.2143V9.59979H19.4286C20.0727 9.59979 20.6904 9.34694 21.1458 8.89686C21.6013 8.44678 21.8571 7.83635 21.8571 7.19984V2.39995C21.8571 1.76344 21.6013 1.15301 21.1458 0.702928C20.6904 0.252851 20.0727 0 19.4286 0H14.5714C13.9273 0 13.3096 0.252851 12.8542 0.702928C12.3987 1.15301 12.1429 1.76344 12.1429 2.39995V7.19984C12.1429 7.83635 12.3987 8.44678 12.8542 8.89686C13.3096 9.34694 13.9273 9.59979 14.5714 9.59979H15.7857V13.1997H1.21429C0.892237 13.1997 0.583379 13.3261 0.355656 13.5512C0.127933 13.7762 0 14.0814 0 14.3997C0 14.7179 0.127933 15.0232 0.355656 15.2482C0.583379 15.4732 0.892237 15.5997 1.21429 15.5997H6.07143V20.3995H4.85714C4.21305 20.3995 3.59533 20.6524 3.13988 21.1025C2.68444 21.5526 2.42857 22.163 2.42857 22.7995V27.5994C2.42857 28.2359 2.68444 28.8463 3.13988 29.2964C3.59533 29.7465 4.21305 29.9993 4.85714 29.9993H9.71429C10.3584 29.9993 10.9761 29.7465 11.4315 29.2964C11.887 28.8463 12.1429 28.2359 12.1429 27.5994V22.7995C12.1429 22.163 11.887 21.5526 11.4315 21.1025C10.9761 20.6524 10.3584 20.3995 9.71429 20.3995H8.5V15.5997H25.5V17.9996C25.5 18.3179 25.6279 18.6231 25.8557 18.8481C26.0834 19.0731 26.3922 19.1996 26.7143 19.1996C27.0363 19.1996 27.3452 19.0731 27.5729 18.8481C27.8006 18.6231 27.9286 18.3179 27.9286 17.9996V15.5997H32.7857C33.1078 15.5997 33.4166 15.4732 33.6443 15.2482C33.8721 15.0232 34 14.7179 34 14.3997C34 14.0814 33.8721 13.7762 33.6443 13.5512C33.4166 13.3261 33.1078 13.1997 32.7857 13.1997ZM14.5714 2.39995H19.4286V7.19984H14.5714V2.39995ZM9.71429 27.5994H4.85714V22.7995H9.71429V27.5994ZM31.2147 22.4485L28.431 25.1994L31.2163 27.9504C31.3291 28.0619 31.4186 28.1942 31.4796 28.3399C31.5407 28.4856 31.5721 28.6417 31.5721 28.7994C31.5721 28.957 31.5407 29.1132 31.4796 29.2588C31.4186 29.4045 31.3291 29.5369 31.2163 29.6483C31.1034 29.7598 30.9695 29.8483 30.8221 29.9086C30.6747 29.9689 30.5167 30 30.3571 30C30.1976 30 30.0396 29.9689 29.8922 29.9086C29.7448 29.8483 29.6109 29.7598 29.498 29.6483L26.7143 26.8959L23.9305 29.6483C23.7027 29.8735 23.3937 30 23.0714 30C22.7492 30 22.4402 29.8735 22.2123 29.6483C21.9845 29.4232 21.8565 29.1178 21.8565 28.7994C21.8565 28.4809 21.9845 28.1755 22.2123 27.9504L24.9976 25.1994L22.2123 22.4485C21.9845 22.2233 21.8565 21.9179 21.8565 21.5995C21.8565 21.2811 21.9845 20.9757 22.2123 20.7505C22.4402 20.5254 22.7492 20.3989 23.0714 20.3989C23.3937 20.3989 23.7027 20.5254 23.9305 20.7505L26.7143 23.503L29.498 20.7505C29.7259 20.5254 30.0349 20.3989 30.3571 20.3989C30.6794 20.3989 30.9884 20.5254 31.2163 20.7505C31.4441 20.9757 31.5721 21.2811 31.5721 21.5995C31.5721 21.9179 31.4441 22.2233 31.2163 22.4485H31.2147Z" fill="#E94264"/>
</svg>
