<svg width="113" height="28" viewBox="0 0 113 28" fill="none" xmlns="http://www.w3.org/2000/svg">
<path d="M17 10.25H11C10.8011 10.25 10.6103 10.329 10.4697 10.4697C10.329 10.6103 10.25 10.8011 10.25 11V17C10.25 17.1989 10.329 17.3897 10.4697 17.5303C10.6103 17.671 10.8011 17.75 11 17.75H17C17.1989 17.75 17.3897 17.671 17.5303 17.5303C17.671 17.3897 17.75 17.1989 17.75 17V11C17.75 10.8011 17.671 10.6103 17.5303 10.4697C17.3897 10.329 17.1989 10.25 17 10.25ZM16.25 16.25H11.75V11.75H16.25V16.25ZM27 16.25H24.75V11.75H27C27.1989 11.75 27.3897 11.671 27.5303 11.5303C27.671 11.3897 27.75 11.1989 27.75 11C27.75 10.8011 27.671 10.6103 27.5303 10.4697C27.3897 10.329 27.1989 10.25 27 10.25H24.75V5C24.75 4.53587 24.5656 4.09075 24.2374 3.76256C23.9092 3.43437 23.4641 3.25 23 3.25H17.75V1C17.75 0.801088 17.671 0.610322 17.5303 0.46967C17.3897 0.329018 17.1989 0.25 17 0.25C16.8011 0.25 16.6103 0.329018 16.4697 0.46967C16.329 0.610322 16.25 0.801088 16.25 1V3.25H11.75V1C11.75 0.801088 11.671 0.610322 11.5303 0.46967C11.3897 0.329018 11.1989 0.25 11 0.25C10.8011 0.25 10.6103 0.329018 10.4697 0.46967C10.329 0.610322 10.25 0.801088 10.25 1V3.25H5C4.53587 3.25 4.09075 3.43437 3.76256 3.76256C3.43437 4.09075 3.25 4.53587 3.25 5V10.25H1C0.801088 10.25 0.610322 10.329 0.46967 10.4697C0.329018 10.6103 0.25 10.8011 0.25 11C0.25 11.1989 0.329018 11.3897 0.46967 11.5303C0.610322 11.671 0.801088 11.75 1 11.75H3.25V16.25H1C0.801088 16.25 0.610322 16.329 0.46967 16.4697C0.329018 16.6103 0.25 16.8011 0.25 17C0.25 17.1989 0.329018 17.3897 0.46967 17.5303C0.610322 17.671 0.801088 17.75 1 17.75H3.25V23C3.25 23.4641 3.43437 23.9092 3.76256 24.2374C4.09075 24.5656 4.53587 24.75 5 24.75H10.25V27C10.25 27.1989 10.329 27.3897 10.4697 27.5303C10.6103 27.671 10.8011 27.75 11 27.75C11.1989 27.75 11.3897 27.671 11.5303 27.5303C11.671 27.3897 11.75 27.1989 11.75 27V24.75H16.25V27C16.25 27.1989 16.329 27.3897 16.4697 27.5303C16.6103 27.671 16.8011 27.75 17 27.75C17.1989 27.75 17.3897 27.671 17.5303 27.5303C17.671 27.3897 17.75 27.1989 17.75 27V24.75H23C23.4641 24.75 23.9092 24.5656 24.2374 24.2374C24.5656 23.9092 24.75 23.4641 24.75 23V17.75H27C27.1989 17.75 27.3897 17.671 27.5303 17.5303C27.671 17.3897 27.75 17.1989 27.75 17C27.75 16.8011 27.671 16.6103 27.5303 16.4697C27.3897 16.329 27.1989 16.25 27 16.25ZM23.25 23C23.25 23.0663 23.2237 23.1299 23.1768 23.1768C23.1299 23.2237 23.0663 23.25 23 23.25H5C4.9337 23.25 4.87011 23.2237 4.82322 23.1768C4.77634 23.1299 4.75 23.0663 4.75 23V5C4.75 4.9337 4.77634 4.87011 4.82322 4.82322C4.87011 4.77634 4.9337 4.75 5 4.75H23C23.0663 4.75 23.1299 4.77634 23.1768 4.82322C23.2237 4.87011 23.25 4.9337 23.25 5V23Z" fill="black"/>
<path d="M46.054 20H43.606L42.382 10.802L41.104 20H38.62L37.036 7.58H39.052L40.024 17.984L41.356 9.02H43.498L44.74 17.984L45.892 7.58H47.764L46.054 20ZM56.937 9.164H54.237V18.398H56.937V20H49.449V18.398H52.149V9.164H49.449V7.58H56.937V9.164ZM68.4139 11.18C68.4139 12.044 68.1559 12.764 67.6399 13.34C67.1239 13.916 66.4399 14.336 65.5879 14.6L69.1159 20H66.6859L63.5539 14.888H62.2039V20H60.1159V7.58H63.5719C66.7999 7.58 68.4139 8.78 68.4139 11.18ZM66.2359 11.18C66.2359 10.46 66.0259 9.938 65.6059 9.614C65.1979 9.29 64.5619 9.128 63.6979 9.128H62.2039V13.358H63.7519C64.5679 13.358 65.1859 13.184 65.6059 12.836C66.0259 12.488 66.2359 11.936 66.2359 11.18ZM73.5009 12.908H78.0009V14.474H73.5009V18.416H78.9909V20H71.4129V7.58H78.8829L78.6489 9.164H73.5009V12.908ZM86.5979 20H84.5099V9.272H80.7659V7.58H90.3959L90.1799 9.272H86.5979V20ZM94.1148 17.012L93.2508 20H91.1088L95.0688 7.58H97.6608L101.621 20H99.4068L98.5428 17.012H94.1148ZM98.1108 15.392L96.3288 9.2L94.5468 15.392H98.1108ZM111.91 11.486C111.91 12.878 111.478 13.91 110.614 14.582C109.75 15.242 108.568 15.572 107.068 15.572H105.556V20H103.486V7.58H106.924C108.52 7.58 109.75 7.91 110.614 8.57C111.478 9.218 111.91 10.19 111.91 11.486ZM109.732 11.486C109.732 9.926 108.844 9.146 107.068 9.146H105.556V13.988H107.086C107.926 13.988 108.574 13.796 109.03 13.412C109.498 13.028 109.732 12.386 109.732 11.486Z" fill="black"/>
</svg>
