<svg width="165" height="30" viewBox="0 0 165 30" fill="none" xmlns="http://www.w3.org/2000/svg">
<path d="M32.7857 13.1997H18.2143V9.59979H19.4286C20.0727 9.59979 20.6904 9.34694 21.1458 8.89686C21.6013 8.44678 21.8571 7.83635 21.8571 7.19984V2.39995C21.8571 1.76344 21.6013 1.15301 21.1458 0.702928C20.6904 0.252851 20.0727 0 19.4286 0H14.5714C13.9273 0 13.3096 0.252851 12.8542 0.702928C12.3987 1.15301 12.1429 1.76344 12.1429 2.39995V7.19984C12.1429 7.83635 12.3987 8.44678 12.8542 8.89686C13.3096 9.34694 13.9273 9.59979 14.5714 9.59979H15.7857V13.1997H1.21429C0.892237 13.1997 0.583379 13.3261 0.355656 13.5512C0.127933 13.7762 0 14.0814 0 14.3997C0 14.7179 0.127933 15.0232 0.355656 15.2482C0.583379 15.4732 0.892237 15.5997 1.21429 15.5997H6.07143V20.3995H4.85714C4.21305 20.3995 3.59533 20.6524 3.13988 21.1025C2.68444 21.5526 2.42857 22.163 2.42857 22.7995V27.5994C2.42857 28.2359 2.68444 28.8463 3.13988 29.2964C3.59533 29.7465 4.21305 29.9993 4.85714 29.9993H9.71429C10.3584 29.9993 10.9761 29.7465 11.4315 29.2964C11.887 28.8463 12.1429 28.2359 12.1429 27.5994V22.7995C12.1429 22.163 11.887 21.5526 11.4315 21.1025C10.9761 20.6524 10.3584 20.3995 9.71429 20.3995H8.5V15.5997H25.5V17.9996C25.5 18.3179 25.6279 18.6231 25.8557 18.8481C26.0834 19.0731 26.3922 19.1996 26.7143 19.1996C27.0363 19.1996 27.3452 19.0731 27.5729 18.8481C27.8006 18.6231 27.9286 18.3179 27.9286 17.9996V15.5997H32.7857C33.1078 15.5997 33.4166 15.4732 33.6443 15.2482C33.8721 15.0232 34 14.7179 34 14.3997C34 14.0814 33.8721 13.7762 33.6443 13.5512C33.4166 13.3261 33.1078 13.1997 32.7857 13.1997ZM14.5714 2.39995H19.4286V7.19984H14.5714V2.39995ZM9.71429 27.5994H4.85714V22.7995H9.71429V27.5994ZM31.2147 22.4485L28.431 25.1994L31.2163 27.9504C31.3291 28.0619 31.4186 28.1942 31.4796 28.3399C31.5407 28.4856 31.5721 28.6417 31.5721 28.7994C31.5721 28.957 31.5407 29.1132 31.4796 29.2588C31.4186 29.4045 31.3291 29.5369 31.2163 29.6483C31.1034 29.7598 30.9695 29.8483 30.8221 29.9086C30.6747 29.9689 30.5167 30 30.3571 30C30.1976 30 30.0396 29.9689 29.8922 29.9086C29.7448 29.8483 29.6109 29.7598 29.498 29.6483L26.7143 26.8959L23.9305 29.6483C23.7027 29.8735 23.3937 30 23.0714 30C22.7492 30 22.4402 29.8735 22.2123 29.6483C21.9845 29.4232 21.8565 29.1178 21.8565 28.7994C21.8565 28.4809 21.9845 28.1755 22.2123 27.9504L24.9976 25.1994L22.2123 22.4485C21.9845 22.2233 21.8565 21.9179 21.8565 21.5995C21.8565 21.2811 21.9845 20.9757 22.2123 20.7505C22.4402 20.5254 22.7492 20.3989 23.0714 20.3989C23.3937 20.3989 23.7027 20.5254 23.9305 20.7505L26.7143 23.503L29.498 20.7505C29.7259 20.5254 30.0349 20.3989 30.3571 20.3989C30.6794 20.3989 30.9884 20.5254 31.2163 20.7505C31.4441 20.9757 31.5721 21.2811 31.5721 21.5995C31.5721 21.9179 31.4441 22.2233 31.2163 22.4485H31.2147Z" fill="#E94264"/>
<path d="M62.4795 26.6011L60.8522 20.7175H53.9778L52.3837 26.6011H48L54.5091 3.39889H60.5533L67.0957 26.6011H62.4795ZM57.5644 7.68698H57.2988L54.7416 17.1607H60.1216L57.5644 7.68698Z" fill="#222222"/>
<path d="M70.138 26.6011V3.39889H78.9386C81.1969 3.39889 82.9238 4.04155 84.1194 5.32687C85.3149 6.61219 85.9127 8.36288 85.9127 10.5789C85.9127 12.795 85.3149 14.5457 84.1194 15.831C82.9238 17.1163 81.1969 17.759 78.9386 17.759H74.4885V26.6011H70.138ZM74.4885 14.2022H78.042C79.2154 14.2022 80.0567 13.9695 80.5659 13.5042C81.0752 13.0166 81.3298 12.2521 81.3298 11.2105V9.94737C81.3298 8.90582 81.0752 8.15235 80.5659 7.68698C80.0567 7.19945 79.2154 6.95568 78.042 6.95568H74.4885V14.2022Z" fill="#222222"/>
<path d="M90.051 26.6011V3.39889H98.8516C101.11 3.39889 102.837 4.04155 104.032 5.32687C105.228 6.61219 105.826 8.36288 105.826 10.5789C105.826 12.795 105.228 14.5457 104.032 15.831C102.837 17.1163 101.11 17.759 98.8516 17.759H94.4015V26.6011H90.051ZM94.4015 14.2022H97.9549C99.1284 14.2022 99.9697 13.9695 100.479 13.5042C100.988 13.0166 101.243 12.2521 101.243 11.2105V9.94737C101.243 8.90582 100.988 8.15235 100.479 7.68698C99.9697 7.19945 99.1284 6.95568 97.9549 6.95568H94.4015V14.2022Z" fill="#222222"/>
<path d="M110.628 26.6011V3.39889H114.979V23.0111H125.241V26.6011H110.628Z" fill="#222222"/>
<path d="M137.183 27C135.678 27 134.371 26.7341 133.264 26.2022C132.157 25.6482 131.239 24.8615 130.508 23.8421C129.799 22.8227 129.268 21.5706 128.914 20.0859C128.582 18.6011 128.416 16.9058 128.416 15C128.416 13.1163 128.582 11.4321 128.914 9.94737C129.268 8.44044 129.799 7.17729 130.508 6.1579C131.239 5.1385 132.157 4.36288 133.264 3.83102C134.371 3.27701 135.678 3 137.183 3C140.194 3 142.408 4.05263 143.825 6.1579C145.242 8.26316 145.95 11.2105 145.95 15C145.95 18.7895 145.242 21.7368 143.825 23.8421C142.408 25.9474 140.194 27 137.183 27ZM137.183 23.4432C137.958 23.4432 138.611 23.2992 139.142 23.0111C139.674 22.7008 140.094 22.2687 140.404 21.7147C140.737 21.1607 140.969 20.4848 141.102 19.687C141.257 18.867 141.334 17.9584 141.334 16.9612V13.0055C141.334 11.0111 141.024 9.43767 140.404 8.28532C139.807 7.13296 138.733 6.55679 137.183 6.55679C135.633 6.55679 134.548 7.13296 133.929 8.28532C133.331 9.43767 133.032 11.0111 133.032 13.0055V16.9945C133.032 18.9889 133.331 20.5623 133.929 21.7147C134.548 22.867 135.633 23.4432 137.183 23.4432Z" fill="#222222"/>
<path d="M161.114 23.3767H160.849C160.65 23.8421 160.406 24.2964 160.118 24.7396C159.83 25.1828 159.476 25.5706 159.055 25.903C158.635 26.2355 158.137 26.5014 157.561 26.7008C157.007 26.9003 156.365 27 155.635 27C153.288 27 151.506 25.9695 150.288 23.9086C149.092 21.8255 148.495 18.9114 148.495 15.1662C148.495 11.2216 149.203 8.20776 150.62 6.12465C152.037 4.04155 154.218 3 157.162 3C158.314 3 159.321 3.15512 160.185 3.46537C161.07 3.77562 161.823 4.20776 162.443 4.76177C163.085 5.31579 163.605 5.98061 164.004 6.75623C164.424 7.5097 164.756 8.32964 165 9.21607L161.015 10.3463C160.86 9.85873 160.683 9.38227 160.483 8.9169C160.306 8.45152 160.063 8.05263 159.753 7.72022C159.465 7.36565 159.111 7.08864 158.69 6.8892C158.269 6.66759 157.749 6.55679 157.129 6.55679C155.69 6.55679 154.661 7.13296 154.041 8.28532C153.421 9.43767 153.111 11.0111 153.111 13.0055V16.7285C153.111 17.7258 153.177 18.6454 153.31 19.4875C153.465 20.3075 153.709 21.0166 154.041 21.615C154.373 22.2133 154.805 22.6787 155.336 23.0111C155.867 23.3213 156.531 23.4765 157.329 23.4765C158.568 23.4765 159.509 23.1108 160.151 22.3795C160.793 21.626 161.114 20.6731 161.114 19.5208V17.626H156.897V14.4681H165V26.6011H161.114V23.3767Z" fill="#222222"/>
</svg>
